<svg width="109" height="66" viewBox="0 0 109 66" fill="none" xmlns="http://www.w3.org/2000/svg">
<rect width="108.727" height="66" rx="5" fill="white"/>
<path d="M42.8236 42.8731L46.3306 23.2971H51.94L48.4304 42.8731H42.8236ZM68.6967 23.7191C67.5856 23.3225 65.844 22.8969 63.6694 22.8969C58.1264 22.8969 54.2222 25.552 54.1888 29.3573C54.1576 32.1702 56.9763 33.7395 59.104 34.6758C61.2876 35.6356 62.0215 36.2474 62.011 37.1041C61.997 38.4164 60.2673 39.0156 58.6549 39.0156C56.4098 39.0156 55.2171 38.7189 53.3748 37.9883L52.6517 37.6772L51.8646 42.0594C53.1748 42.6061 55.5975 43.0793 58.1132 43.1039C64.0099 43.1039 67.8378 40.4791 67.8813 36.4154C67.9022 34.1884 66.4078 32.4939 63.1715 31.0966C61.2108 30.191 60.0101 29.5867 60.0228 28.6697C60.0228 27.856 61.0392 26.9859 63.2355 26.9859C65.0696 26.9588 66.3986 27.3393 67.4339 27.7359L67.9365 27.9618L68.6967 23.7191ZM83.1319 23.2967H78.7974C77.4547 23.2967 76.4497 23.6454 75.8601 24.9202L67.5293 42.8602H73.4197C73.4197 42.8602 74.3826 40.4481 74.6004 39.9184C75.2441 39.9184 80.9664 39.9268 81.7844 39.9268C81.9522 40.6122 82.4669 42.8602 82.4669 42.8602H87.672L83.1319 23.2967ZM76.2547 35.9378C76.7187 34.8099 78.4897 30.4654 78.4897 30.4654C78.4567 30.5175 78.9503 29.332 79.2334 28.597L79.6125 30.2848C79.6125 30.2848 80.6866 34.9577 80.9111 35.9375L76.2547 35.9378ZM38.0616 23.2967L32.5698 36.6468L31.9848 33.9339C30.9623 30.8065 27.777 27.4182 24.216 25.7219L29.2377 42.8419L35.1727 42.8356L44.0039 23.2966L38.0616 23.2967Z" fill="#0E4595"/>
<path d="M27.4454 23.296H18.4001L18.3284 23.7033C25.3655 25.3237 30.0218 29.2396 31.9551 33.9453L29.9882 24.9493C29.6488 23.7097 28.6639 23.3397 27.4456 23.2965" fill="#F2AE14"/>
</svg>
